  <svg xmlns="http://www.w3.org/2000/svg"
                 xmlns:xlink="http://www.w3.org/1999/xlink"
                 version="1.1" width="100%" height="100%" viewBox="0 0 1280 1024" xml:space="preserve" style="position:absolute;top:0;left:0;bottom:0;right:0;border:0; background-color:black">
<desc>Created with Fabric.js 4.4.0</desc>
<defs>
</defs>
<g transform="matrix(1 0 0 1 640 512)" id="background-logo">
<rect style="stroke: none; stroke-width: 0; stroke-dasharray: none; stroke-linecap: butt; stroke-dashoffset: 0; stroke-linejoin: miter; stroke-miterlimit: 4; fill: rgb(0,0,0); fill-rule: nonzero; opacity: 1;" paint-order="stroke" x="-640" y="-512" rx="0" ry="0" width="1280" height="1024" />
</g>
<g transform="matrix(1.9211538461538462 0 0 1.9211538461538462 799.6432335802667 510.46302559224756)" id="text-logo-path-group">
<g style="" paint-order="stroke">
            <g transform="matrix(1 0 0 1 0 0)" id="text-logo-path-0">
<path style="stroke: rgb(255,255,255); stroke-width: 0; stroke-dasharray: none; stroke-linecap: butt; stroke-dashoffset: 0; stroke-linejoin: miter;
 stroke-miterlimit: 4; fill: rgb(43,164,198); fill-rule: nonzero; opacity: 1;"
      paint-order="stroke"
      transform=" translate(-182.27499999999998, 24.045)"
      d="M 12.57 0 L 7.41 0 L 7.41 -48.09 L 9.61 -48.09 L 11.45 -43.36 Q 13.01 -46.03 15.54 -47.62 Q 18.07 -49.21 21.03 -49.21 L 21.03 -49.21 Q 28.51 -49.21 30.57 -43.79 L 30.57 -43.79 Q 34.11 -49.21 39.89 -49.21 L 39.89 -49.21 Q 50.33 -49.21 50.33 -38.84 L 50.33 -38.84 L 50.33 0 L 45.13 0 L 45.13 -38.84 Q 45.13 -44.77 39.82 -44.77 L 39.82 -44.77 Q 36.71 -44.77 34.07 -42.26 Q 31.44 -39.75 31.44 -37.36 L 31.44 -37.36 L 31.44 0 L 26.27 0 L 26.27 -38.84 Q 26.27 -44.77 20.96 -44.77 L 20.96 -44.77 Q 17.85 -44.77 15.21 -42.37 Q 12.57 -39.96 12.57 -37.58 L 12.57 -37.58 L 12.57 0 Z M 63.23 -9.25 L 63.23 -9.25 L 63.23 -38.84 Q 63.23 -43.79 66.27 -46.5 Q 69.3 -49.21 75.37 -49.21 Q 81.44 -49.21 84.55 -46.5 Q 87.66 -43.79 87.66 -38.84 L 87.66 -38.84 L 87.66 -22.58 L 68.4 -22.58 L 68.4 -9.25 Q 68.4 -3.32 75.45 -3.32 Q 82.49 -3.32 82.49 -9.25 L 82.49 -9.25 L 82.49 -13.33 L 87.66 -13.33 L 87.66 -9.25 Q 87.66 -4.3 84.62 -1.59 Q 81.59 1.12 75.52 1.12 Q 69.45 1.12 66.34 -1.59 Q 63.23 -4.3 63.23 -9.25 Z M 68.4 -38.84 L 68.4 -27.03 L 82.49 -27.03 L 82.49 -38.84 Q 82.49 -44.77 75.45 -44.77 Q 68.4 -44.77 68.4 -38.84 L 68.4 -38.84 Z M 100.23 -8.53 L 100.23 -8.53 L 100.23 -48.09 L 116.53 -48.09 L 116.53 -43.65 L 105.4 -43.65 L 105.4 -8.2 Q 105.4 -6.14 106.48 -4.73 Q 107.57 -3.32 109.52 -3.32 Q 111.47 -3.32 112.52 -4.7 Q 113.57 -6.07 113.57 -8.2 L 113.57 -8.2 L 113.57 -17.02 L 118.73 -17.02 L 118.73 -8.53 Q 118.73 -3.87 116.26 -1.37 Q 113.78 1.12 109.55 1.12 Q 105.33 1.12 102.78 -1.35 Q 100.23 -3.83 100.23 -8.53 Z M 127.98 -9.25 L 127.98 -9.25 L 127.98 -38.84 Q 127.98 -43.79 131.02 -46.5 Q 134.05 -49.21 140.12 -49.21 Q 146.19 -49.21 149.3 -46.5 Q 152.41 -43.79 152.41 -38.84 L 152.41 -38.84 L 152.41 -22.58 L 133.15 -22.58 L 133.15 -9.25 Q 133.15 -3.32 140.2 -3.32 Q 147.24 -3.32 147.24 -9.25 L 147.24 -9.25 L 147.24 -13.33 L 152.41 -13.33 L 152.41 -9.25 Q 152.41 -4.3 149.37 -1.59 Q 146.34 1.12 140.27 1.12 Q 134.2 1.12 131.09 -1.59 Q 127.98 -4.3 127.98 -9.25 Z M 133.15 -38.84 L 133.15 -27.03 L 147.24 -27.03 L 147.24 -38.84 Q 147.24 -44.77 140.2 -44.77 Q 133.15 -44.77 133.15 -38.84 L 133.15 -38.84 Z M 171.27 0 L 166.1 0 L 166.1 -48.09 L 168.31 -48.09 L 170.47 -42.64 Q 172.86 -49.21 178.03 -49.21 L 178.03 -49.21 Q 186.84 -49.21 186.81 -39.6 L 186.81 -39.6 L 186.81 -34.8 L 181.86 -34.8 L 181.86 -39.89 Q 181.86 -44.77 177.77 -44.77 L 177.77 -44.77 Q 175.32 -44.77 173.29 -41.95 Q 171.27 -39.13 171.27 -33.82 L 171.27 -33.82 L 171.27 0 Z M 200.93 0 L 195.77 0 L 195.77 -48.09 L 200.93 -48.09 L 200.93 -27.68 L 213.83 -48.09 L 219.58 -48.09 L 206.5 -27.39 L 220.48 0 L 214.77 0 L 203.39 -22.44 L 200.93 -18.5 L 200.93 0 Z M 248.05 0 L 229.33 0 L 229.33 -48.09 L 234.5 -48.09 L 234.5 -4.44 L 248.05 -4.44 L 248.05 0 Z M 255.78 -9.25 L 255.78 -9.25 L 255.78 -38.84 Q 255.78 -43.79 258.93 -46.5 Q 262.07 -49.21 268.32 -49.21 Q 274.57 -49.21 277.75 -46.5 Q 280.93 -43.79 280.93 -38.84 L 280.93 -38.84 L 280.93 -9.25 Q 280.93 -4.3 277.79 -1.59 Q 274.65 1.12 268.39 1.12 Q 262.14 1.12 258.96 -1.59 Q 255.78 -4.3 255.78 -9.25 Z M 260.95 -38.84 L 260.95 -9.25 Q 260.95 -3.32 268.36 -3.32 Q 275.77 -3.32 275.77 -9.25 L 275.77 -9.25 L 275.77 -38.84 Q 275.77 -44.77 268.36 -44.77 Q 260.95 -44.77 260.95 -38.84 L 260.95 -38.84 Z M 293.87 -9.25 L 293.87 -9.25 L 293.87 -48.09 L 299.07 -48.09 L 299.07 -9.25 Q 299.07 -6.43 300.28 -4.88 Q 301.49 -3.32 304.74 -3.32 Q 308 -3.32 310.74 -5.84 Q 313.49 -8.35 313.49 -10.73 L 313.49 -10.73 L 313.49 -48.09 L 318.66 -48.09 L 318.66 0 L 316.45 0 L 314.54 -4.73 Q 312.91 -2.06 310.34 -0.47 Q 307.78 1.12 304.74 1.12 L 304.74 1.12 Q 293.87 1.12 293.87 -9.25 Z M 345.39 0 L 333.47 0 L 333.47 -48.09 L 345.39 -48.09 Q 351.17 -48.09 354.16 -45.36 Q 357.14 -42.64 357.14 -37.72 L 357.14 -37.72 L 357.14 -10.37 Q 357.14 -5.42 354.19 -2.71 Q 351.25 0 345.39 0 L 345.39 0 Z M 338.64 -43.65 L 338.64 -4.44 L 345.39 -4.44 Q 351.97 -4.44 351.97 -10.37 L 351.97 -10.37 L 351.97 -37.72 Q 351.97 -40.54 350.27 -42.09 Q 348.57 -43.65 345.39 -43.65 L 345.39 -43.65 L 338.64 -43.65 Z" stroke-linecap="round" />
</g>
</g>
</g>
<g transform="matrix(1.1259556093210041 0 0 1.1259556093210041 278.86835051445365 510.8863922601053)" id="logo-logo">
<g style="" paint-order="stroke">
            <g transform="matrix(1.246116777507345 0 0 1.246116777507345 0 -2.842171e-14)">
<g style="" paint-order="stroke">
            <g transform="matrix(1 0 0 1 0 0)">

<linearGradient id="SVGID_1_277945" gradientUnits="userSpaceOnUse" gradientTransform="matrix(1 0 0 1 -100 -100)" x1="0" y1="0" x2="0" y2="201">
<stop offset="0%" style="stop-color:rgb(91,36,122);stop-opacity: 1" />
<stop offset="100%" style="stop-color:rgb(27,206,223);stop-opacity: 1" />
</linearGradient>

<polygon style="stroke: none; stroke-width: 1; stroke-dasharray: none; stroke-linecap: butt; stroke-dashoffset: 0; stroke-linejoin: miter; stroke-miterlimit: 4; fill: url(#SVGID_1_277945); fill-rule: nonzero; opacity: 1;" paint-order="stroke" points="100,100 0,100 0,95.12 95.12,95.12 95.12,-95.12 -95.12,-95.12 -95.12,0 -100,0 -100,-100 100,-100 100,100 " />
</g>
</g>
</g>
</g>
</g>
<g transform="matrix(1.9211538461538462 0 0 1.9211538461538462 279.0900148962145 509.112980504357)" id="tagline-3a78d944-c0db-44d4-8ad5-60158c925687-logo-path-group">
<g style="" paint-order="stroke">
            <g transform="matrix(1 0 0 1 0 0)" id="tagline-3a78d944-c0db-44d4-8ad5-60158c925687-logo-path-0">

<linearGradient id="SVGID_277946" gradientUnits="userSpaceOnUse" gradientTransform="matrix(1 0 0 1 13.909999999999997 -90.34)" x1="0" y1="0" x2="0" y2="157">
<stop offset="0%" style="stop-color:rgb(91,36,122);stop-opacity: 1" />
<stop offset="100%" style="stop-color:rgb(27,206,223);stop-opacity: 1" />
</linearGradient>

<path style="stroke: rgb(255,255,255); stroke-width: 0; stroke-dasharray: none; stroke-linecap: butt; stroke-dashoffset: 0;
 stroke-linejoin: miter; stroke-miterlimit: 4; fill: url(#SVGID_1_277945); fill-rule: nonzero; opacity: 1;"
      paint-order="stroke"
      transform=" translate(-44.42, 45.17)" d="M 23.62 0 L 13.91 0 L 13.91 -90.34 L 28.51 -90.34 L 44.32 -30.75 L 60.34 -90.34 L 74.93 -90.34 L 74.93 0 L 65.22 0 L 65.22 -74.79
   L 48.94 -13.91 L 39.91 -13.91 L 23.62 -74.79 L 23.62 0 Z" stroke-linecap="round" />
</g>
</g>
</g>
</svg>
